<?xml version="1.0" encoding="UTF-8" standalone="no"?>
<svg width="24px" height="23px" viewBox="0 0 24 23" version="1.1" xmlns="http://www.w3.org/2000/svg" xmlns:xlink="http://www.w3.org/1999/xlink" xmlns:sketch="http://www.bohemiancoding.com/sketch/ns">
    <!-- Generator: Sketch 3.3.3 (12072) - http://www.bohemiancoding.com/sketch -->
    <title>Group</title>
    <desc>Created with Sketch.</desc>
    <defs></defs>
    <g id="Page-1" stroke="none" stroke-width="1" fill="none" fill-rule="evenodd" sketch:type="MSPage">
        <g id="Group" sketch:type="MSLayerGroup" stroke="#2683FF" stroke-linejoin="round">
            <path d="M2.5,20 C2.5,18.62 3.619,17.5 5,17.5 L19,17.5 C20.381,17.5 21.5,18.62 21.5,20 C21.5,21.381 20.381,22.5 19,22.5 L5,22.5 C3.619,22.5 2.5,21.381 2.5,20 L2.5,20 Z" id="Stroke-536" sketch:type="MSShapeGroup"></path>
            <path d="M3.2813,21.8125 L7.5623,17.5315" id="Stroke-537" sketch:type="MSShapeGroup"></path>
            <path d="M5.5938,22.5 L10.5628,17.531" id="Stroke-538" sketch:type="MSShapeGroup"></path>
            <path d="M8.5938,22.5 L13.5628,17.531" id="Stroke-539" sketch:type="MSShapeGroup"></path>
            <path d="M11.5938,22.5 L16.5628,17.531" id="Stroke-540" sketch:type="MSShapeGroup"></path>
            <path d="M14.5938,22.5 L19.5348,17.558" id="Stroke-541" sketch:type="MSShapeGroup"></path>
            <path d="M17.5938,22.5 L21.2248,18.87" id="Stroke-542" sketch:type="MSShapeGroup"></path>
            <path d="M23.5,9.5 C23.5,6.704 21.19,4.403 18.32,4.509 C17.198,2.142 14.793,0.5 12,0.5 C8.274,0.5 5.238,3.41 5.021,7.08 C2.688,6.593 0.5,8.37 0.5,10.75 C0.5,14.56 4.5,14.5 4.5,14.5 L19,14.5 C19,14.5 23.5,13.914 23.5,9.5 L23.5,9.5 Z" id="Stroke-543" sketch:type="MSShapeGroup"></path>
        </g>
    </g>
</svg>