<?xml version="1.0" encoding="UTF-8" standalone="no"?>
<svg width="24px" height="20px" viewBox="0 0 24 20" version="1.1" xmlns="http://www.w3.org/2000/svg" xmlns:xlink="http://www.w3.org/1999/xlink" xmlns:sketch="http://www.bohemiancoding.com/sketch/ns">
    <!-- Generator: Sketch 3.3.3 (12072) - http://www.bohemiancoding.com/sketch -->
    <title>Group</title>
    <desc>Created with Sketch.</desc>
    <defs></defs>
    <g id="Page-1" stroke="none" stroke-width="1" fill="none" fill-rule="evenodd" sketch:type="MSPage">
        <g id="Group" sketch:type="MSLayerGroup" stroke="#2683FF" stroke-linejoin="round">
            <path d="M18.1953,14.3916 C18.1953,14.3916 22.5003,13.8316 22.5003,9.6096 C22.5003,6.9336 20.2923,4.7336 17.5463,4.8336 C16.4723,2.5706 14.1733,0.9996 11.5003,0.9996 C7.9383,0.9996 5.0333,3.7836 4.8253,7.2936 C2.5923,6.8276 0.5003,8.5276 0.5003,10.8056 C0.5003,13.7966 3.0793,14.2926 4.0023,14.3756" id="Stroke-482" stroke-linecap="round" sketch:type="MSShapeGroup"></path>
            <path d="M16,14.5 C16,17.262 13.761,19.5 11,19.5 C8.238,19.5 6,17.262 6,14.5 C6,11.739 8.238,9.5 11,9.5 C13.761,9.5 16,11.739 16,14.5 L16,14.5 Z" id="Stroke-483" sketch:type="MSShapeGroup"></path>
            <path d="M9.8408,15.6006 C9.8408,16.2416 10.3608,16.7596 10.9998,16.7596 C11.6398,16.7596 12.1588,16.2416 12.1588,15.6006 C12.1588,14.9606 11.6398,14.4426 10.9998,14.4426 C10.3608,14.4426 9.8408,13.9226 9.8408,13.2836 C9.8408,12.6426 10.3608,12.1236 10.9998,12.1236 C11.6398,12.1236 12.1588,12.6426 12.1588,13.2836" id="Stroke-484" stroke-linecap="round" sketch:type="MSShapeGroup"></path>
            <path d="M11,16.7598 L11,17.5328" id="Stroke-485" stroke-linecap="round" sketch:type="MSShapeGroup"></path>
            <path d="M11,11.3506 L11,12.1236" id="Stroke-486" stroke-linecap="round" sketch:type="MSShapeGroup"></path>
        </g>
    </g>
</svg>