<?xml version="1.0" encoding="UTF-8" standalone="no"?>
<svg width="24px" height="20px" viewBox="0 0 24 20" version="1.1" xmlns="http://www.w3.org/2000/svg" xmlns:xlink="http://www.w3.org/1999/xlink" xmlns:sketch="http://www.bohemiancoding.com/sketch/ns">
    <!-- Generator: Sketch 3.3.3 (12072) - http://www.bohemiancoding.com/sketch -->
    <title>Group</title>
    <desc>Created with Sketch.</desc>
    <defs></defs>
    <g id="Page-1" stroke="none" stroke-width="1" fill="none" fill-rule="evenodd" sketch:type="MSPage">
        <g id="Group" sketch:type="MSLayerGroup" stroke="#2684FF" stroke-linecap="round" stroke-linejoin="round">
            <path d="M18.1953,14.3916 C18.1953,14.3916 22.5003,13.8316 22.5003,9.6096 C22.5003,6.9336 20.2923,4.7336 17.5463,4.8336 C16.4723,2.5706 14.1733,0.9996 11.5003,0.9996 C7.9383,0.9996 5.0333,3.7836 4.8253,7.2936 C2.5923,6.8276 0.5003,8.5276 0.5003,10.8056 C0.5003,13.7966 3.0793,14.2926 4.0023,14.3756" id="Stroke-469" sketch:type="MSShapeGroup"></path>
            <path d="M15.5,19.5 L7.5,19.5 L7.5,13.5 L15.5,13.5 L15.5,19.5 Z" id="Stroke-470" sketch:type="MSShapeGroup"></path>
            <path d="M11.5,17.5005 L11.5,16.5005" id="Stroke-471" sketch:type="MSShapeGroup"></path>
            <path d="M8.5,13.5 L8.5,12.5 C8.5,10.843 9.843,9.5 11.5,9.5 C13.156,9.5 14.5,10.843 14.5,12.5 L14.5,13.5" id="Stroke-472" sketch:type="MSShapeGroup"></path>
            <path d="M12,16 C12,16.276 11.776,16.5 11.5,16.5 C11.224,16.5 11,16.276 11,16 C11,15.724 11.224,15.5 11.5,15.5 C11.776,15.5 12,15.724 12,16 L12,16 Z" id="Stroke-473" sketch:type="MSShapeGroup"></path>
        </g>
    </g>
</svg>