<?xml version="1.0" encoding="UTF-8" standalone="no"?>
<svg width="25px" height="25px" viewBox="0 0 25 25" version="1.1" xmlns="http://www.w3.org/2000/svg" xmlns:xlink="http://www.w3.org/1999/xlink" xmlns:sketch="http://www.bohemiancoding.com/sketch/ns">
    <!-- Generator: Sketch 3.3.3 (12072) - http://www.bohemiancoding.com/sketch -->
    <title>social-twitter</title>
    <desc>Created with Sketch.</desc>
    <defs></defs>
    <g id="Page-1" stroke="none" stroke-width="1" fill="none" fill-rule="evenodd" sketch:type="MSPage">
        <g id="social-twitter" sketch:type="MSLayerGroup" stroke="#FFFFFF">
            <g id="Page-1" sketch:type="MSShapeGroup">
                <g id="social-twitter">
                    <path d="M23.623,12.001 C23.623,18.353 18.475,23.501 12.123,23.501 C5.771,23.501 0.623,18.353 0.623,12.001 C0.623,5.649 5.771,0.501 12.123,0.501 C18.475,0.501 23.623,5.649 23.623,12.001 L23.623,12.001 L23.623,12.001 Z" id="Stroke-541" fill="#2684FF"></path>
                    <path d="M18.5,7.3535 C18.5,7.3535 17.149,7.4995 16.55,7.6195 C16.069,7.1065 15.386,6.7875 14.629,6.7875 C13.175,6.7875 11.996,7.9655 11.996,9.4195 C11.996,9.6245 12.019,9.8275 12.065,10.0185 C9.877,9.9105 7.937,8.8615 6.64,7.2685 C6.413,7.6595 6.283,8.1105 6.283,8.5925 C6.283,9.5065 6.748,10.3105 7.454,10.7835 C7.023,10.7685 6.617,10.6505 6.262,10.4535 L6.262,10.4885 C6.262,11.7625 7.169,12.8275 8.373,13.0675 C7.987,13.1735 7.581,13.1875 7.185,13.1135 C7.519,14.1585 8.491,14.9195 9.643,14.9415 C8.518,15.8245 7.12,16.1915 5.746,16.0305 C6.911,16.7775 8.295,17.2145 9.781,17.2145 C14.622,17.2145 17.269,13.2025 17.269,9.7255 C17.269,9.6105 17.268,9.4975 17.262,9.3845 C17.776,9.0125 18.148,7.8825 18.5,7.3535 L18.5,7.3535 L18.5,7.3535 Z" id="Stroke-540"></path>
                </g>
            </g>
        </g>
    </g>
</svg>