<?xml version="1.0" encoding="UTF-8" standalone="no"?>
<svg width="24px" height="24px" viewBox="0 0 24 24" version="1.1" xmlns="http://www.w3.org/2000/svg" xmlns:xlink="http://www.w3.org/1999/xlink" xmlns:sketch="http://www.bohemiancoding.com/sketch/ns">
    <!-- Generator: Sketch 3.3.3 (12072) - http://www.bohemiancoding.com/sketch -->
    <title>social-reddit</title>
    <desc>Created with Sketch.</desc>
    <defs></defs>
    <g id="Page-1" stroke="none" stroke-width="1" fill="none" fill-rule="evenodd" sketch:type="MSPage">
        <g id="social-reddit" sketch:type="MSLayerGroup" stroke="#FFFFFF">
            <g id="Page-1" sketch:type="MSShapeGroup">
                <g id="social-reddit">
                    <path d="M23.5,12 C23.5,18.351 18.352,23.5 12,23.5 C5.648,23.5 0.5,18.351 0.5,12 C0.5,5.648 5.648,0.5 12,0.5 C18.352,0.5 23.5,5.648 23.5,12 L23.5,12 L23.5,12 Z" id="Stroke-787" fill="#2684FF"></path>
                    <path d="M18.1953,14.3691 C18.1953,16.7101 15.4223,18.6081 12.0003,18.6081 C8.5783,18.6081 5.8043,16.7101 5.8043,14.3691 C5.8043,12.0291 8.5783,10.1301 12.0003,10.1301 C15.4223,10.1301 18.1953,12.0291 18.1953,14.3691 L18.1953,14.3691 L18.1953,14.3691 Z" id="Stroke-788"></path>
                    <path d="M14.3066,16.2476 C13.6836,16.6066 12.8786,16.8236 11.9996,16.8236 C11.1176,16.8236 10.3086,16.6056 9.6836,16.2436" id="Stroke-789"></path>
                    <path d="M15.5879,13.3916 C15.5879,13.9316 15.1499,14.3686 14.6089,14.3686 C14.0689,14.3686 13.6309,13.9316 13.6309,13.3916 C13.6309,12.8506 14.0689,12.4126 14.6089,12.4126 C15.1499,12.4126 15.5879,12.8506 15.5879,13.3916 L15.5879,13.3916 L15.5879,13.3916 Z" id="Stroke-790"></path>
                    <path d="M10.3691,13.3916 C10.3691,13.9316 9.9321,14.3686 9.3911,14.3686 C8.8521,14.3686 8.4131,13.9316 8.4131,13.3916 C8.4131,12.8506 8.8521,12.4126 9.3911,12.4126 C9.9321,12.4126 10.3691,12.8506 10.3691,13.3916 L10.3691,13.3916 L10.3691,13.3916 Z" id="Stroke-791"></path>
                    <path d="M16.3984,11.3848 C16.6604,10.8348 17.2204,10.4558 17.8694,10.4558 C18.7694,10.4558 19.5004,11.1858 19.5004,12.0868 C19.5004,12.9028 18.9004,13.5788 18.1174,13.6988" id="Stroke-792"></path>
                    <path d="M18.8477,7.521 C18.8477,8.422 18.1167,9.152 17.2167,9.152 C16.3167,9.152 15.5877,8.422 15.5877,7.521 C15.5877,6.622 16.3167,5.891 17.2167,5.891 C18.1167,5.891 18.8477,6.622 18.8477,7.521 L18.8477,7.521 L18.8477,7.521 Z" id="Stroke-793"></path>
                    <path d="M7.6025,11.3848 C7.3395,10.8358 6.7795,10.4558 6.1305,10.4558 C5.2305,10.4558 4.5005,11.1858 4.5005,12.0868 C4.5005,12.9028 5.0995,13.5788 5.8825,13.6988" id="Stroke-794"></path>
                    <path d="M12,10.1304 C12,10.1304 11.918,5.3064 15.588,7.5214" id="Stroke-795"></path>
                </g>
            </g>
        </g>
    </g>
</svg>