<?xml version="1.0" encoding="UTF-8" standalone="no"?>
<svg width="24px" height="24px" viewBox="0 0 24 24" version="1.1" xmlns="http://www.w3.org/2000/svg" xmlns:xlink="http://www.w3.org/1999/xlink" xmlns:sketch="http://www.bohemiancoding.com/sketch/ns">
    <!-- Generator: Sketch 3.3.3 (12072) - http://www.bohemiancoding.com/sketch -->
    <title>social-tumblr</title>
    <desc>Created with Sketch.</desc>
    <defs></defs>
    <g id="Page-1" stroke="none" stroke-width="1" fill="none" fill-rule="evenodd" sketch:type="MSPage">
        <g id="social-tumblr" sketch:type="MSLayerGroup" stroke="#FFFFFF">
            <g id="Page-1" sketch:type="MSShapeGroup">
                <g id="social-tumblr">
                    <path d="M23.5,12 C23.5,18.351 18.352,23.5 12,23.5 C5.648,23.5 0.5,18.351 0.5,12 C0.5,5.648 5.648,0.5 12,0.5 C18.352,0.5 23.5,5.648 23.5,12 L23.5,12 L23.5,12 Z" id="Stroke-561" fill="#2684FF"></path>
                    <path d="M12.5,4.5 L12.5,7.5 L14.5,7.5 L14.5,9.5 L12.5,9.5 L12.5,13.219 C12.5,15.687 13.984,15.911 15.492,14.919 L15.492,17.616 C11.401,19.544 9.5,17 9.5,14.031 L9.5,9.5 L7.5,9.5 L7.5,8.142 C8.049,7.964 8.736,7.708 9.127,7.375 C9.519,7.041 9.834,6.642 10.07,6.175 C10.309,5.708 10.472,5.221 10.56,4.5 L12.5,4.5 L12.5,4.5 Z" id="Stroke-562"></path>
                </g>
            </g>
        </g>
    </g>
</svg>